<mxfile host="app.diagrams.net" modified="2023-08-29T10:32:55.267Z" agent="Mozilla/5.0 (Windows NT 10.0; Win64; x64; rv:102.0) Gecko/20100101 Firefox/102.0" etag="6NgImQGIpUTzUizQlkyK" version="21.6.9" type="device">
  <diagram name="Page-1" id="4fjpPRk3InbObQBz06lm">
    <mxGraphModel dx="1834" dy="1154" grid="0" gridSize="10" guides="1" tooltips="1" connect="1" arrows="1" fold="1" page="0" pageScale="1" pageWidth="850" pageHeight="1100" math="0" shadow="0">
      <root>
        <mxCell id="0" />
        <mxCell id="1" parent="0" />
        <mxCell id="qdFVjH142uykXFrdu_A6-49" value="" style="rounded=0;whiteSpace=wrap;html=1;" parent="1" vertex="1">
          <mxGeometry x="-158" y="-327" width="1052" height="744" as="geometry" />
        </mxCell>
        <mxCell id="qdFVjH142uykXFrdu_A6-1" value="&lt;div&gt;Brain&lt;/div&gt;&lt;div&gt;(Raspbery pi)&lt;br&gt;&lt;/div&gt;" style="rounded=0;whiteSpace=wrap;html=1;" parent="1" vertex="1">
          <mxGeometry x="158" y="47" width="120" height="60" as="geometry" />
        </mxCell>
        <mxCell id="qdFVjH142uykXFrdu_A6-19" value="D3" style="edgeStyle=orthogonalEdgeStyle;rounded=0;orthogonalLoop=1;jettySize=auto;html=1;exitX=0.25;exitY=1;exitDx=0;exitDy=0;" parent="1" source="qdFVjH142uykXFrdu_A6-2" target="qdFVjH142uykXFrdu_A6-14" edge="1">
          <mxGeometry x="-0.9211" y="-13" relative="1" as="geometry">
            <mxPoint as="offset" />
          </mxGeometry>
        </mxCell>
        <mxCell id="qdFVjH142uykXFrdu_A6-20" value="D4" style="edgeStyle=orthogonalEdgeStyle;rounded=0;orthogonalLoop=1;jettySize=auto;html=1;exitX=0.75;exitY=1;exitDx=0;exitDy=0;entryX=0.5;entryY=0;entryDx=0;entryDy=0;" parent="1" source="qdFVjH142uykXFrdu_A6-2" target="qdFVjH142uykXFrdu_A6-15" edge="1">
          <mxGeometry x="-0.9211" y="10" relative="1" as="geometry">
            <mxPoint as="offset" />
          </mxGeometry>
        </mxCell>
        <mxCell id="qdFVjH142uykXFrdu_A6-2" value="&lt;div&gt;Controller&lt;/div&gt;&lt;div&gt;(Nucleo)&lt;br&gt;&lt;/div&gt;" style="rounded=0;whiteSpace=wrap;html=1;" parent="1" vertex="1">
          <mxGeometry x="465" y="47" width="120" height="60" as="geometry" />
        </mxCell>
        <mxCell id="qdFVjH142uykXFrdu_A6-3" value="USB0 - miniUSB" style="endArrow=classic;startArrow=classic;html=1;rounded=0;entryX=0;entryY=0.5;entryDx=0;entryDy=0;exitX=1;exitY=0.5;exitDx=0;exitDy=0;" parent="1" source="qdFVjH142uykXFrdu_A6-1" target="qdFVjH142uykXFrdu_A6-2" edge="1">
          <mxGeometry width="50" height="50" relative="1" as="geometry">
            <mxPoint x="399" y="350" as="sourcePoint" />
            <mxPoint x="449" y="300" as="targetPoint" />
          </mxGeometry>
        </mxCell>
        <mxCell id="qdFVjH142uykXFrdu_A6-9" value="Camera" style="rounded=1;whiteSpace=wrap;html=1;" parent="1" vertex="1">
          <mxGeometry x="-149" y="47" width="120" height="60" as="geometry" />
        </mxCell>
        <mxCell id="qdFVjH142uykXFrdu_A6-10" value="IMU" style="rounded=1;whiteSpace=wrap;html=1;" parent="1" vertex="1">
          <mxGeometry x="465" y="245" width="120" height="60" as="geometry" />
        </mxCell>
        <mxCell id="qdFVjH142uykXFrdu_A6-11" value="Flexi cable" style="endArrow=classic;startArrow=classic;html=1;rounded=0;exitX=1;exitY=0.5;exitDx=0;exitDy=0;entryX=0;entryY=0.5;entryDx=0;entryDy=0;" parent="1" source="qdFVjH142uykXFrdu_A6-9" target="qdFVjH142uykXFrdu_A6-1" edge="1">
          <mxGeometry width="50" height="50" relative="1" as="geometry">
            <mxPoint x="399" y="350" as="sourcePoint" />
            <mxPoint x="449" y="300" as="targetPoint" />
          </mxGeometry>
        </mxCell>
        <mxCell id="qdFVjH142uykXFrdu_A6-12" value="I2C" style="endArrow=classic;startArrow=classic;html=1;rounded=0;entryX=0.5;entryY=1;entryDx=0;entryDy=0;" parent="1" source="qdFVjH142uykXFrdu_A6-10" target="qdFVjH142uykXFrdu_A6-2" edge="1">
          <mxGeometry width="50" height="50" relative="1" as="geometry">
            <mxPoint x="399" y="350" as="sourcePoint" />
            <mxPoint x="449" y="300" as="targetPoint" />
          </mxGeometry>
        </mxCell>
        <mxCell id="qdFVjH142uykXFrdu_A6-14" value="Motor" style="shape=parallelogram;perimeter=parallelogramPerimeter;whiteSpace=wrap;html=1;fixedSize=1;" parent="1" vertex="1">
          <mxGeometry x="294" y="245" width="120" height="60" as="geometry" />
        </mxCell>
        <mxCell id="qdFVjH142uykXFrdu_A6-15" value="Servo" style="shape=parallelogram;perimeter=parallelogramPerimeter;whiteSpace=wrap;html=1;fixedSize=1;" parent="1" vertex="1">
          <mxGeometry x="636" y="245" width="120" height="60" as="geometry" />
        </mxCell>
        <mxCell id="qdFVjH142uykXFrdu_A6-24" value="Brain supply&lt;br&gt;&lt;div&gt;(+5V, can be modified)&lt;/div&gt;" style="edgeStyle=orthogonalEdgeStyle;rounded=0;orthogonalLoop=1;jettySize=auto;html=1;exitX=0.025;exitY=0.425;exitDx=0;exitDy=0;entryX=0.25;entryY=0;entryDx=0;entryDy=0;strokeColor=#ff0000;exitPerimeter=0;" parent="1" source="qdFVjH142uykXFrdu_A6-21" target="qdFVjH142uykXFrdu_A6-1" edge="1">
          <mxGeometry x="-0.5424" y="-8" relative="1" as="geometry">
            <mxPoint as="offset" />
          </mxGeometry>
        </mxCell>
        <mxCell id="qdFVjH142uykXFrdu_A6-29" value="&lt;div&gt;IBat&lt;br&gt;&lt;/div&gt;" style="edgeStyle=orthogonalEdgeStyle;rounded=0;orthogonalLoop=1;jettySize=auto;html=1;exitX=0.258;exitY=0.963;exitDx=0;exitDy=0;entryX=0.25;entryY=0;entryDx=0;entryDy=0;exitPerimeter=0;" parent="1" source="qdFVjH142uykXFrdu_A6-21" target="qdFVjH142uykXFrdu_A6-2" edge="1">
          <mxGeometry x="-0.8966" y="11" relative="1" as="geometry">
            <Array as="points">
              <mxPoint x="342" />
              <mxPoint x="495" />
            </Array>
            <mxPoint as="offset" />
          </mxGeometry>
        </mxCell>
        <mxCell id="qdFVjH142uykXFrdu_A6-30" value="UBat" style="edgeStyle=orthogonalEdgeStyle;rounded=0;orthogonalLoop=1;jettySize=auto;html=1;entryX=0.5;entryY=0;entryDx=0;entryDy=0;" parent="1" target="qdFVjH142uykXFrdu_A6-2" edge="1">
          <mxGeometry x="-0.6225" y="15" relative="1" as="geometry">
            <Array as="points">
              <mxPoint x="371" y="-24" />
              <mxPoint x="525" y="-24" />
            </Array>
            <mxPoint as="offset" />
            <mxPoint x="368" y="-46" as="sourcePoint" />
          </mxGeometry>
        </mxCell>
        <mxCell id="qdFVjH142uykXFrdu_A6-45" value="Gen Supply (+5V)" style="edgeStyle=orthogonalEdgeStyle;rounded=0;jumpSize=21;orthogonalLoop=1;jettySize=auto;html=1;exitX=0.983;exitY=0.588;exitDx=0;exitDy=0;entryX=0.75;entryY=1;entryDx=0;entryDy=0;strokeColor=#ff0000;strokeWidth=4;exitPerimeter=0;" parent="1" source="qdFVjH142uykXFrdu_A6-21" target="qdFVjH142uykXFrdu_A6-10" edge="1">
          <mxGeometry x="-0.9095" y="10" relative="1" as="geometry">
            <Array as="points">
              <mxPoint x="429" y="-88" />
              <mxPoint x="825" y="-88" />
              <mxPoint x="825" y="373" />
              <mxPoint x="555" y="373" />
            </Array>
            <mxPoint as="offset" />
          </mxGeometry>
        </mxCell>
        <mxCell id="qdFVjH142uykXFrdu_A6-21" value="Power Board" style="ellipse;whiteSpace=wrap;html=1;" parent="1" vertex="1">
          <mxGeometry x="311" y="-128" width="120" height="80" as="geometry" />
        </mxCell>
        <mxCell id="qdFVjH142uykXFrdu_A6-27" style="edgeStyle=orthogonalEdgeStyle;rounded=0;orthogonalLoop=1;jettySize=auto;html=1;exitX=1;exitY=1;exitDx=0;exitDy=0;entryX=0;entryY=0;entryDx=0;entryDy=0;" parent="1" source="qdFVjH142uykXFrdu_A6-25" target="qdFVjH142uykXFrdu_A6-21" edge="1">
          <mxGeometry relative="1" as="geometry" />
        </mxCell>
        <mxCell id="qdFVjH142uykXFrdu_A6-25" value="&lt;div&gt;Battery 1&lt;/div&gt;&lt;div&gt;7.4V&lt;br&gt;&lt;/div&gt;" style="ellipse;whiteSpace=wrap;html=1;" parent="1" vertex="1">
          <mxGeometry x="189" y="-274" width="120" height="80" as="geometry" />
        </mxCell>
        <mxCell id="qdFVjH142uykXFrdu_A6-28" style="edgeStyle=orthogonalEdgeStyle;rounded=0;orthogonalLoop=1;jettySize=auto;html=1;exitX=0;exitY=1;exitDx=0;exitDy=0;" parent="1" source="qdFVjH142uykXFrdu_A6-26" target="qdFVjH142uykXFrdu_A6-21" edge="1">
          <mxGeometry relative="1" as="geometry" />
        </mxCell>
        <mxCell id="qdFVjH142uykXFrdu_A6-26" value="&lt;div&gt;Battery 2&lt;/div&gt;&lt;div&gt;7.4V&lt;br&gt;&lt;/div&gt;" style="ellipse;whiteSpace=wrap;html=1;" parent="1" vertex="1">
          <mxGeometry x="437" y="-274" width="120" height="80" as="geometry" />
        </mxCell>
        <mxCell id="qdFVjH142uykXFrdu_A6-33" value="GND" style="endArrow=classic;html=1;rounded=0;strokeColor=#000000;strokeWidth=4;jumpSize=21;exitX=1;exitY=0;exitDx=0;exitDy=0;entryX=0.5;entryY=1;entryDx=0;entryDy=0;" parent="1" source="qdFVjH142uykXFrdu_A6-21" target="qdFVjH142uykXFrdu_A6-14" edge="1">
          <mxGeometry x="-0.9806" y="12" width="50" height="50" relative="1" as="geometry">
            <mxPoint x="399" y="110" as="sourcePoint" />
            <mxPoint x="449" y="60" as="targetPoint" />
            <Array as="points">
              <mxPoint x="864" y="-119" />
              <mxPoint x="864" y="395" />
              <mxPoint x="354" y="395" />
            </Array>
            <mxPoint as="offset" />
          </mxGeometry>
        </mxCell>
        <mxCell id="qdFVjH142uykXFrdu_A6-34" value="" style="endArrow=classic;html=1;rounded=0;strokeColor=#000000;strokeWidth=4;jumpSize=21;entryX=0.5;entryY=1;entryDx=0;entryDy=0;" parent="1" target="qdFVjH142uykXFrdu_A6-10" edge="1">
          <mxGeometry width="50" height="50" relative="1" as="geometry">
            <mxPoint x="525" y="395" as="sourcePoint" />
            <mxPoint x="449" y="60" as="targetPoint" />
          </mxGeometry>
        </mxCell>
        <mxCell id="qdFVjH142uykXFrdu_A6-35" value="" style="endArrow=classic;html=1;rounded=0;strokeColor=#000000;strokeWidth=4;jumpSize=21;entryX=0.5;entryY=1;entryDx=0;entryDy=0;" parent="1" target="qdFVjH142uykXFrdu_A6-15" edge="1">
          <mxGeometry width="50" height="50" relative="1" as="geometry">
            <mxPoint x="699" y="394" as="sourcePoint" />
            <mxPoint x="449" y="60" as="targetPoint" />
          </mxGeometry>
        </mxCell>
        <mxCell id="qdFVjH142uykXFrdu_A6-36" value="" style="endArrow=classic;html=1;rounded=0;strokeColor=#000000;strokeWidth=4;jumpSize=21;entryX=1;entryY=0.25;entryDx=0;entryDy=0;" parent="1" target="qdFVjH142uykXFrdu_A6-2" edge="1">
          <mxGeometry width="50" height="50" relative="1" as="geometry">
            <mxPoint x="866" y="58" as="sourcePoint" />
            <mxPoint x="449" y="60" as="targetPoint" />
          </mxGeometry>
        </mxCell>
        <mxCell id="qdFVjH142uykXFrdu_A6-41" value="" style="endArrow=classic;html=1;rounded=0;strokeColor=#000000;strokeWidth=4;jumpSize=21;entryX=0;entryY=0;entryDx=0;entryDy=0;" parent="1" target="qdFVjH142uykXFrdu_A6-1" edge="1">
          <mxGeometry width="50" height="50" relative="1" as="geometry">
            <mxPoint x="463" y="-117" as="sourcePoint" />
            <mxPoint x="595" y="87" as="targetPoint" />
            <Array as="points">
              <mxPoint x="461" y="-158" />
              <mxPoint x="156" y="-156" />
            </Array>
          </mxGeometry>
        </mxCell>
        <mxCell id="qdFVjH142uykXFrdu_A6-42" value="gnd signal" style="text;html=1;strokeColor=none;fillColor=none;align=center;verticalAlign=middle;whiteSpace=wrap;rounded=0;" parent="1" vertex="1">
          <mxGeometry x="280" y="305" width="68" height="30" as="geometry" />
        </mxCell>
        <mxCell id="qdFVjH142uykXFrdu_A6-43" value="Servo supply (+5V)" style="endArrow=classic;html=1;rounded=0;strokeColor=#ff0000;strokeWidth=1;jumpSize=21;exitX=1;exitY=1;exitDx=0;exitDy=0;entryX=0.75;entryY=0;entryDx=0;entryDy=0;" parent="1" source="qdFVjH142uykXFrdu_A6-21" target="qdFVjH142uykXFrdu_A6-15" edge="1">
          <mxGeometry x="-0.8007" y="1" width="50" height="50" relative="1" as="geometry">
            <mxPoint x="424.96000000000004" y="-72.00000000000003" as="sourcePoint" />
            <mxPoint x="353" y="339.96" as="targetPoint" />
            <Array as="points">
              <mxPoint x="719" y="-62" />
              <mxPoint x="722" y="4" />
            </Array>
            <mxPoint as="offset" />
          </mxGeometry>
        </mxCell>
        <mxCell id="qdFVjH142uykXFrdu_A6-46" value="D12" style="text;html=1;strokeColor=none;fillColor=none;align=center;verticalAlign=middle;whiteSpace=wrap;rounded=0;" parent="1" vertex="1">
          <mxGeometry x="512" y="20" width="60" height="30" as="geometry" />
        </mxCell>
        <mxCell id="qdFVjH142uykXFrdu_A6-47" value="D11" style="text;html=1;strokeColor=none;fillColor=none;align=center;verticalAlign=middle;whiteSpace=wrap;rounded=0;" parent="1" vertex="1">
          <mxGeometry x="448" y="20" width="60" height="30" as="geometry" />
        </mxCell>
        <mxCell id="qdFVjH142uykXFrdu_A6-48" value="" style="endArrow=classic;html=1;rounded=0;strokeColor=#ff0000;strokeWidth=4;jumpSize=21;entryX=1;entryY=0.75;entryDx=0;entryDy=0;" parent="1" target="qdFVjH142uykXFrdu_A6-2" edge="1">
          <mxGeometry width="50" height="50" relative="1" as="geometry">
            <mxPoint x="824" y="89" as="sourcePoint" />
            <mxPoint x="449" y="60" as="targetPoint" />
          </mxGeometry>
        </mxCell>
        <mxCell id="MuTM-6EljMEQY094edfh-1" value="" style="endArrow=classic;html=1;rounded=0;exitX=0;exitY=1;exitDx=0;exitDy=0;entryX=0.25;entryY=0;entryDx=0;entryDy=0;strokeColor=#FF0000;" parent="1" source="qdFVjH142uykXFrdu_A6-21" target="qdFVjH142uykXFrdu_A6-14" edge="1">
          <mxGeometry width="50" height="50" relative="1" as="geometry">
            <mxPoint x="340" y="64" as="sourcePoint" />
            <mxPoint x="390" y="14" as="targetPoint" />
          </mxGeometry>
        </mxCell>
        <mxCell id="MuTM-6EljMEQY094edfh-2" value="BEC" style="text;html=1;strokeColor=none;fillColor=none;align=center;verticalAlign=middle;whiteSpace=wrap;rounded=0;" parent="1" vertex="1">
          <mxGeometry x="278" y="-67" width="60" height="30" as="geometry" />
        </mxCell>
        <mxCell id="MuTM-6EljMEQY094edfh-3" value="vcc signal" style="text;html=1;strokeColor=none;fillColor=none;align=center;verticalAlign=middle;whiteSpace=wrap;rounded=0;" parent="1" vertex="1">
          <mxGeometry x="256" y="215" width="68" height="30" as="geometry" />
        </mxCell>
        <mxCell id="MuTM-6EljMEQY094edfh-4" value="signal" style="text;html=1;strokeColor=none;fillColor=none;align=center;verticalAlign=middle;whiteSpace=wrap;rounded=0;" parent="1" vertex="1">
          <mxGeometry x="353" y="215" width="68" height="30" as="geometry" />
        </mxCell>
        <mxCell id="MuTM-6EljMEQY094edfh-5" value="" style="verticalLabelPosition=bottom;html=1;verticalAlign=top;align=center;strokeColor=none;fillColor=#00BEF2;shape=mxgraph.azure.automation;pointerEvents=1;" parent="1" vertex="1">
          <mxGeometry x="66" y="245" width="83" height="72" as="geometry" />
        </mxCell>
        <mxCell id="MuTM-6EljMEQY094edfh-7" value="" style="shape=flexArrow;endArrow=classic;startArrow=classic;html=1;rounded=0;exitX=1;exitY=0.41;exitDx=0;exitDy=0;exitPerimeter=0;entryX=0;entryY=0.5;entryDx=0;entryDy=0;strokeWidth=3;" parent="1" source="MuTM-6EljMEQY094edfh-5" target="qdFVjH142uykXFrdu_A6-14" edge="1">
          <mxGeometry width="100" height="100" relative="1" as="geometry">
            <mxPoint x="308" y="89" as="sourcePoint" />
            <mxPoint x="408" y="-11" as="targetPoint" />
          </mxGeometry>
        </mxCell>
      </root>
    </mxGraphModel>
  </diagram>
</mxfile>
